<mxfile host="app.diagrams.net" modified="2023-04-23T09:00:47.458Z" agent="Mozilla/5.0 (Windows NT 10.0; Win64; x64) AppleWebKit/537.36 (KHTML, like Gecko) Chrome/112.0.0.0 Safari/537.36 Edg/112.0.1722.48" etag="tQr7ggictsP8q6QA0Up-" version="21.1.8" type="github">
  <diagram name="第 1 页" id="86zzf1FGlmF-jtxHysGu">
    <mxGraphModel dx="1432" dy="519" grid="0" gridSize="10" guides="1" tooltips="1" connect="1" arrows="1" fold="1" page="0" pageScale="1" pageWidth="827" pageHeight="1169" math="0" shadow="0">
      <root>
        <mxCell id="0" />
        <mxCell id="1" parent="0" />
        <mxCell id="UD72UffFnvkCBpp7IFEL-2" style="edgeStyle=orthogonalEdgeStyle;rounded=0;orthogonalLoop=1;jettySize=auto;html=1;exitX=0.5;exitY=1;exitDx=0;exitDy=0;entryX=0.5;entryY=0;entryDx=0;entryDy=0;" parent="1" source="UD72UffFnvkCBpp7IFEL-1" target="UD72UffFnvkCBpp7IFEL-5" edge="1">
          <mxGeometry relative="1" as="geometry">
            <mxPoint x="265" y="205" as="targetPoint" />
          </mxGeometry>
        </mxCell>
        <mxCell id="UD72UffFnvkCBpp7IFEL-1" value="调用开启预上传接口" style="rounded=0;whiteSpace=wrap;html=1;" parent="1" vertex="1">
          <mxGeometry x="205" y="55" width="120" height="60" as="geometry" />
        </mxCell>
        <mxCell id="UD72UffFnvkCBpp7IFEL-6" style="edgeStyle=orthogonalEdgeStyle;rounded=0;orthogonalLoop=1;jettySize=auto;html=1;entryX=1;entryY=0.5;entryDx=0;entryDy=0;" parent="1" target="UD72UffFnvkCBpp7IFEL-12" edge="1">
          <mxGeometry relative="1" as="geometry">
            <mxPoint x="395" y="245" as="targetPoint" />
            <mxPoint x="220" y="245" as="sourcePoint" />
          </mxGeometry>
        </mxCell>
        <mxCell id="UD72UffFnvkCBpp7IFEL-7" value="否" style="edgeLabel;html=1;align=center;verticalAlign=middle;resizable=0;points=[];" parent="UD72UffFnvkCBpp7IFEL-6" vertex="1" connectable="0">
          <mxGeometry x="-0.142" y="-1" relative="1" as="geometry">
            <mxPoint as="offset" />
          </mxGeometry>
        </mxCell>
        <mxCell id="UD72UffFnvkCBpp7IFEL-8" style="edgeStyle=orthogonalEdgeStyle;rounded=0;orthogonalLoop=1;jettySize=auto;html=1;exitX=0.5;exitY=1;exitDx=0;exitDy=0;entryX=0.5;entryY=0;entryDx=0;entryDy=0;" parent="1" source="UD72UffFnvkCBpp7IFEL-5" target="UD72UffFnvkCBpp7IFEL-9" edge="1">
          <mxGeometry relative="1" as="geometry">
            <mxPoint x="265" y="335" as="targetPoint" />
          </mxGeometry>
        </mxCell>
        <mxCell id="UD72UffFnvkCBpp7IFEL-10" value="是" style="edgeLabel;html=1;align=center;verticalAlign=middle;resizable=0;points=[];" parent="UD72UffFnvkCBpp7IFEL-8" vertex="1" connectable="0">
          <mxGeometry x="-0.1156" relative="1" as="geometry">
            <mxPoint as="offset" />
          </mxGeometry>
        </mxCell>
        <mxCell id="lTjCLl5CSfBBcBf3yB8B-60" value="" style="edgeStyle=orthogonalEdgeStyle;rounded=0;orthogonalLoop=1;jettySize=auto;html=1;" parent="1" source="UD72UffFnvkCBpp7IFEL-5" target="UD72UffFnvkCBpp7IFEL-12" edge="1">
          <mxGeometry relative="1" as="geometry" />
        </mxCell>
        <mxCell id="UD72UffFnvkCBpp7IFEL-5" value="请求是否成功" style="rhombus;whiteSpace=wrap;html=1;" parent="1" vertex="1">
          <mxGeometry x="225" y="205" width="80" height="80" as="geometry" />
        </mxCell>
        <mxCell id="lTjCLl5CSfBBcBf3yB8B-118" style="edgeStyle=orthogonalEdgeStyle;rounded=0;orthogonalLoop=1;jettySize=auto;html=1;exitX=0.5;exitY=1;exitDx=0;exitDy=0;" parent="1" source="UD72UffFnvkCBpp7IFEL-9" target="lTjCLl5CSfBBcBf3yB8B-117" edge="1">
          <mxGeometry relative="1" as="geometry" />
        </mxCell>
        <mxCell id="UD72UffFnvkCBpp7IFEL-9" value="返回任务Id 或者是 “-1”标志位" style="rounded=0;whiteSpace=wrap;html=1;" parent="1" vertex="1">
          <mxGeometry x="205" y="340" width="120" height="60" as="geometry" />
        </mxCell>
        <mxCell id="lTjCLl5CSfBBcBf3yB8B-61" style="edgeStyle=orthogonalEdgeStyle;rounded=0;orthogonalLoop=1;jettySize=auto;html=1;exitX=0.5;exitY=1;exitDx=0;exitDy=0;entryX=0;entryY=0.5;entryDx=0;entryDy=0;" parent="1" source="UD72UffFnvkCBpp7IFEL-12" target="lTjCLl5CSfBBcBf3yB8B-55" edge="1">
          <mxGeometry relative="1" as="geometry" />
        </mxCell>
        <mxCell id="UD72UffFnvkCBpp7IFEL-12" value="前端抛出异常提示" style="rounded=0;whiteSpace=wrap;html=1;" parent="1" vertex="1">
          <mxGeometry x="40" y="222.5" width="100" height="45" as="geometry" />
        </mxCell>
        <mxCell id="UD72UffFnvkCBpp7IFEL-13" style="edgeStyle=orthogonalEdgeStyle;rounded=0;orthogonalLoop=1;jettySize=auto;html=1;exitX=0.5;exitY=1;exitDx=0;exitDy=0;entryX=0.5;entryY=0;entryDx=0;entryDy=0;" parent="1" source="UD72UffFnvkCBpp7IFEL-23" target="UD72UffFnvkCBpp7IFEL-19" edge="1">
          <mxGeometry relative="1" as="geometry">
            <mxPoint x="880" y="200" as="targetPoint" />
            <mxPoint x="880" y="110" as="sourcePoint" />
            <Array as="points">
              <mxPoint x="880" y="110" />
            </Array>
          </mxGeometry>
        </mxCell>
        <mxCell id="UD72UffFnvkCBpp7IFEL-19" value="" style="rhombus;whiteSpace=wrap;html=1;" parent="1" vertex="1">
          <mxGeometry x="840" y="200" width="80" height="80" as="geometry" />
        </mxCell>
        <mxCell id="lTjCLl5CSfBBcBf3yB8B-63" style="edgeStyle=orthogonalEdgeStyle;rounded=0;orthogonalLoop=1;jettySize=auto;html=1;exitX=0.5;exitY=1;exitDx=0;exitDy=0;entryX=0.5;entryY=0;entryDx=0;entryDy=0;" parent="1" source="UD72UffFnvkCBpp7IFEL-20" target="lTjCLl5CSfBBcBf3yB8B-62" edge="1">
          <mxGeometry relative="1" as="geometry" />
        </mxCell>
        <mxCell id="UD72UffFnvkCBpp7IFEL-20" value="前端记录&lt;br&gt;partNumber与ETag关系（partNumber由1开始计数）" style="rounded=0;whiteSpace=wrap;html=1;" parent="1" vertex="1">
          <mxGeometry x="815" y="440" width="130" height="50" as="geometry" />
        </mxCell>
        <mxCell id="UD72UffFnvkCBpp7IFEL-23" value="开始分段上传" style="rounded=0;whiteSpace=wrap;html=1;" parent="1" vertex="1">
          <mxGeometry x="819" y="50" width="120" height="60" as="geometry" />
        </mxCell>
        <mxCell id="R8NhTUtv1D92i6jCtsth-3" style="edgeStyle=orthogonalEdgeStyle;rounded=0;orthogonalLoop=1;jettySize=auto;html=1;exitX=1;exitY=0.5;exitDx=0;exitDy=0;" parent="1" source="UD72UffFnvkCBpp7IFEL-24" target="R8NhTUtv1D92i6jCtsth-2" edge="1">
          <mxGeometry relative="1" as="geometry" />
        </mxCell>
        <mxCell id="UD72UffFnvkCBpp7IFEL-24" value="请求是否成功" style="rhombus;whiteSpace=wrap;html=1;" parent="1" vertex="1">
          <mxGeometry x="840" y="200" width="80" height="80" as="geometry" />
        </mxCell>
        <mxCell id="UD72UffFnvkCBpp7IFEL-25" style="edgeStyle=orthogonalEdgeStyle;rounded=0;orthogonalLoop=1;jettySize=auto;html=1;exitX=0.5;exitY=1;exitDx=0;exitDy=0;entryX=0.5;entryY=0;entryDx=0;entryDy=0;" parent="1" source="UD72UffFnvkCBpp7IFEL-24" target="UD72UffFnvkCBpp7IFEL-20" edge="1">
          <mxGeometry relative="1" as="geometry">
            <mxPoint x="880" y="360" as="targetPoint" />
          </mxGeometry>
        </mxCell>
        <mxCell id="UD72UffFnvkCBpp7IFEL-26" value="成功" style="edgeLabel;html=1;align=center;verticalAlign=middle;resizable=0;points=[];" parent="UD72UffFnvkCBpp7IFEL-25" vertex="1" connectable="0">
          <mxGeometry x="-0.1156" relative="1" as="geometry">
            <mxPoint as="offset" />
          </mxGeometry>
        </mxCell>
        <mxCell id="lTjCLl5CSfBBcBf3yB8B-3" style="edgeStyle=orthogonalEdgeStyle;rounded=0;orthogonalLoop=1;jettySize=auto;html=1;entryX=0.5;entryY=0;entryDx=0;entryDy=0;" parent="1" source="lTjCLl5CSfBBcBf3yB8B-11" target="lTjCLl5CSfBBcBf3yB8B-57" edge="1">
          <mxGeometry relative="1" as="geometry">
            <mxPoint x="1570" y="200" as="targetPoint" />
          </mxGeometry>
        </mxCell>
        <mxCell id="lTjCLl5CSfBBcBf3yB8B-4" value="开始分段上传" style="rounded=0;whiteSpace=wrap;html=1;" parent="1" vertex="1">
          <mxGeometry x="1510" y="55" width="120" height="60" as="geometry" />
        </mxCell>
        <mxCell id="lTjCLl5CSfBBcBf3yB8B-11" value="调用中止任务" style="rounded=0;whiteSpace=wrap;html=1;" parent="1" vertex="1">
          <mxGeometry x="1510" y="55" width="120" height="60" as="geometry" />
        </mxCell>
        <mxCell id="lTjCLl5CSfBBcBf3yB8B-20" style="edgeStyle=orthogonalEdgeStyle;rounded=0;orthogonalLoop=1;jettySize=auto;html=1;exitX=0.5;exitY=1;exitDx=0;exitDy=0;" parent="1" source="lTjCLl5CSfBBcBf3yB8B-18" target="lTjCLl5CSfBBcBf3yB8B-19" edge="1">
          <mxGeometry relative="1" as="geometry" />
        </mxCell>
        <mxCell id="lTjCLl5CSfBBcBf3yB8B-18" value="合并请求，带上partNumber-&amp;gt;ETag" style="rounded=0;whiteSpace=wrap;html=1;" parent="1" vertex="1">
          <mxGeometry x="820" y="649.41" width="120" height="60" as="geometry" />
        </mxCell>
        <mxCell id="lTjCLl5CSfBBcBf3yB8B-19" value="请求是否成功" style="rhombus;whiteSpace=wrap;html=1;" parent="1" vertex="1">
          <mxGeometry x="840" y="830" width="80" height="80" as="geometry" />
        </mxCell>
        <mxCell id="lTjCLl5CSfBBcBf3yB8B-25" style="edgeStyle=orthogonalEdgeStyle;rounded=0;orthogonalLoop=1;jettySize=auto;html=1;exitX=1;exitY=0.5;exitDx=0;exitDy=0;entryX=0.5;entryY=1;entryDx=0;entryDy=0;" parent="1" source="lTjCLl5CSfBBcBf3yB8B-19" target="lTjCLl5CSfBBcBf3yB8B-74" edge="1">
          <mxGeometry relative="1" as="geometry">
            <mxPoint x="1011" y="833.53" as="targetPoint" />
            <mxPoint x="921" y="826.03" as="sourcePoint" />
            <Array as="points">
              <mxPoint x="921" y="870" />
              <mxPoint x="1221" y="870" />
            </Array>
          </mxGeometry>
        </mxCell>
        <mxCell id="lTjCLl5CSfBBcBf3yB8B-26" value="失败" style="edgeLabel;html=1;align=center;verticalAlign=middle;resizable=0;points=[];" parent="lTjCLl5CSfBBcBf3yB8B-25" vertex="1" connectable="0">
          <mxGeometry x="-0.142" y="-1" relative="1" as="geometry">
            <mxPoint as="offset" />
          </mxGeometry>
        </mxCell>
        <mxCell id="lTjCLl5CSfBBcBf3yB8B-27" style="edgeStyle=orthogonalEdgeStyle;rounded=0;orthogonalLoop=1;jettySize=auto;html=1;entryX=0.5;entryY=0;entryDx=0;entryDy=0;exitX=0.5;exitY=1;exitDx=0;exitDy=0;" parent="1" source="lTjCLl5CSfBBcBf3yB8B-19" target="lTjCLl5CSfBBcBf3yB8B-55" edge="1">
          <mxGeometry relative="1" as="geometry">
            <mxPoint x="881" y="1105.6499999999999" as="targetPoint" />
            <mxPoint x="881" y="1032.6499999999999" as="sourcePoint" />
            <Array as="points" />
          </mxGeometry>
        </mxCell>
        <mxCell id="lTjCLl5CSfBBcBf3yB8B-28" value="成功" style="edgeLabel;html=1;align=center;verticalAlign=middle;resizable=0;points=[];" parent="lTjCLl5CSfBBcBf3yB8B-27" vertex="1" connectable="0">
          <mxGeometry x="-0.1156" relative="1" as="geometry">
            <mxPoint as="offset" />
          </mxGeometry>
        </mxCell>
        <mxCell id="lTjCLl5CSfBBcBf3yB8B-31" style="edgeStyle=orthogonalEdgeStyle;rounded=0;orthogonalLoop=1;jettySize=auto;html=1;exitX=0.5;exitY=1;exitDx=0;exitDy=0;entryX=0.5;entryY=0;entryDx=0;entryDy=0;" parent="1" source="lTjCLl5CSfBBcBf3yB8B-32" target="lTjCLl5CSfBBcBf3yB8B-37" edge="1">
          <mxGeometry relative="1" as="geometry">
            <mxPoint x="165" y="1940" as="targetPoint" />
          </mxGeometry>
        </mxCell>
        <mxCell id="lTjCLl5CSfBBcBf3yB8B-32" value="使用HEAD探测文件信息" style="rounded=0;whiteSpace=wrap;html=1;" parent="1" vertex="1">
          <mxGeometry x="105" y="1790" width="120" height="60" as="geometry" />
        </mxCell>
        <mxCell id="lTjCLl5CSfBBcBf3yB8B-33" style="edgeStyle=orthogonalEdgeStyle;rounded=0;orthogonalLoop=1;jettySize=auto;html=1;exitX=0;exitY=0.5;exitDx=0;exitDy=0;entryX=0;entryY=0.5;entryDx=0;entryDy=0;" parent="1" source="lTjCLl5CSfBBcBf3yB8B-37" target="lTjCLl5CSfBBcBf3yB8B-112" edge="1">
          <mxGeometry relative="1" as="geometry">
            <mxPoint x="295" y="1980" as="targetPoint" />
            <Array as="points">
              <mxPoint x="20" y="1980" />
              <mxPoint x="20" y="2478" />
            </Array>
          </mxGeometry>
        </mxCell>
        <mxCell id="lTjCLl5CSfBBcBf3yB8B-34" value="失败" style="edgeLabel;html=1;align=center;verticalAlign=middle;resizable=0;points=[];" parent="lTjCLl5CSfBBcBf3yB8B-33" vertex="1" connectable="0">
          <mxGeometry x="-0.142" y="-1" relative="1" as="geometry">
            <mxPoint as="offset" />
          </mxGeometry>
        </mxCell>
        <mxCell id="lTjCLl5CSfBBcBf3yB8B-35" style="edgeStyle=orthogonalEdgeStyle;rounded=0;orthogonalLoop=1;jettySize=auto;html=1;exitX=0.5;exitY=1;exitDx=0;exitDy=0;entryX=0.5;entryY=0;entryDx=0;entryDy=0;" parent="1" source="lTjCLl5CSfBBcBf3yB8B-37" target="lTjCLl5CSfBBcBf3yB8B-38" edge="1">
          <mxGeometry relative="1" as="geometry">
            <mxPoint x="165" y="2070" as="targetPoint" />
          </mxGeometry>
        </mxCell>
        <mxCell id="lTjCLl5CSfBBcBf3yB8B-36" value="成功" style="edgeLabel;html=1;align=center;verticalAlign=middle;resizable=0;points=[];" parent="lTjCLl5CSfBBcBf3yB8B-35" vertex="1" connectable="0">
          <mxGeometry x="-0.1156" relative="1" as="geometry">
            <mxPoint as="offset" />
          </mxGeometry>
        </mxCell>
        <mxCell id="lTjCLl5CSfBBcBf3yB8B-37" value="请求是否成功" style="rhombus;whiteSpace=wrap;html=1;" parent="1" vertex="1">
          <mxGeometry x="125" y="1940" width="80" height="80" as="geometry" />
        </mxCell>
        <mxCell id="lTjCLl5CSfBBcBf3yB8B-51" style="edgeStyle=orthogonalEdgeStyle;rounded=0;orthogonalLoop=1;jettySize=auto;html=1;exitX=1;exitY=0.5;exitDx=0;exitDy=0;entryX=0;entryY=0.5;entryDx=0;entryDy=0;" parent="1" source="lTjCLl5CSfBBcBf3yB8B-38" target="lTjCLl5CSfBBcBf3yB8B-43" edge="1">
          <mxGeometry relative="1" as="geometry">
            <Array as="points">
              <mxPoint x="330" y="2130" />
              <mxPoint x="330" y="1820" />
            </Array>
          </mxGeometry>
        </mxCell>
        <mxCell id="lTjCLl5CSfBBcBf3yB8B-38" value="返回文件大小、名称" style="rounded=0;whiteSpace=wrap;html=1;" parent="1" vertex="1">
          <mxGeometry x="105" y="2100" width="120" height="60" as="geometry" />
        </mxCell>
        <mxCell id="lTjCLl5CSfBBcBf3yB8B-42" style="edgeStyle=orthogonalEdgeStyle;rounded=0;orthogonalLoop=1;jettySize=auto;html=1;exitX=0.5;exitY=1;exitDx=0;exitDy=0;entryX=0.5;entryY=0;entryDx=0;entryDy=0;" parent="1" source="lTjCLl5CSfBBcBf3yB8B-43" target="lTjCLl5CSfBBcBf3yB8B-48" edge="1">
          <mxGeometry relative="1" as="geometry">
            <mxPoint x="590" y="1940" as="targetPoint" />
          </mxGeometry>
        </mxCell>
        <mxCell id="lTjCLl5CSfBBcBf3yB8B-43" value="请求分段下载" style="rounded=0;whiteSpace=wrap;html=1;" parent="1" vertex="1">
          <mxGeometry x="530" y="1790" width="120" height="60" as="geometry" />
        </mxCell>
        <mxCell id="lTjCLl5CSfBBcBf3yB8B-44" style="edgeStyle=orthogonalEdgeStyle;rounded=0;orthogonalLoop=1;jettySize=auto;html=1;exitX=1;exitY=0.5;exitDx=0;exitDy=0;entryX=1;entryY=0.5;entryDx=0;entryDy=0;" parent="1" source="lTjCLl5CSfBBcBf3yB8B-48" target="lTjCLl5CSfBBcBf3yB8B-43" edge="1">
          <mxGeometry relative="1" as="geometry">
            <mxPoint x="847" y="2000" as="targetPoint" />
            <Array as="points">
              <mxPoint x="850" y="2000" />
              <mxPoint x="850" y="1820" />
            </Array>
          </mxGeometry>
        </mxCell>
        <mxCell id="lTjCLl5CSfBBcBf3yB8B-45" value="失败" style="edgeLabel;html=1;align=center;verticalAlign=middle;resizable=0;points=[];" parent="lTjCLl5CSfBBcBf3yB8B-44" vertex="1" connectable="0">
          <mxGeometry x="-0.142" y="-1" relative="1" as="geometry">
            <mxPoint as="offset" />
          </mxGeometry>
        </mxCell>
        <mxCell id="lTjCLl5CSfBBcBf3yB8B-46" style="edgeStyle=orthogonalEdgeStyle;rounded=0;orthogonalLoop=1;jettySize=auto;html=1;exitX=0.5;exitY=1;exitDx=0;exitDy=0;entryX=0.5;entryY=0;entryDx=0;entryDy=0;" parent="1" source="lTjCLl5CSfBBcBf3yB8B-48" target="lTjCLl5CSfBBcBf3yB8B-49" edge="1">
          <mxGeometry relative="1" as="geometry">
            <mxPoint x="590" y="2230" as="targetPoint" />
          </mxGeometry>
        </mxCell>
        <mxCell id="lTjCLl5CSfBBcBf3yB8B-47" value="成功" style="edgeLabel;html=1;align=center;verticalAlign=middle;resizable=0;points=[];" parent="lTjCLl5CSfBBcBf3yB8B-46" vertex="1" connectable="0">
          <mxGeometry x="-0.1156" relative="1" as="geometry">
            <mxPoint as="offset" />
          </mxGeometry>
        </mxCell>
        <mxCell id="lTjCLl5CSfBBcBf3yB8B-48" value="请求是否成功" style="rhombus;whiteSpace=wrap;html=1;" parent="1" vertex="1">
          <mxGeometry x="550" y="1960" width="80" height="80" as="geometry" />
        </mxCell>
        <mxCell id="lTjCLl5CSfBBcBf3yB8B-98" style="edgeStyle=orthogonalEdgeStyle;rounded=0;orthogonalLoop=1;jettySize=auto;html=1;exitX=0.5;exitY=1;exitDx=0;exitDy=0;entryX=0.5;entryY=0;entryDx=0;entryDy=0;" parent="1" source="lTjCLl5CSfBBcBf3yB8B-49" target="lTjCLl5CSfBBcBf3yB8B-97" edge="1">
          <mxGeometry relative="1" as="geometry" />
        </mxCell>
        <mxCell id="lTjCLl5CSfBBcBf3yB8B-49" value="二进制文件流" style="rounded=0;whiteSpace=wrap;html=1;" parent="1" vertex="1">
          <mxGeometry x="530" y="2110" width="120" height="60" as="geometry" />
        </mxCell>
        <mxCell id="lTjCLl5CSfBBcBf3yB8B-111" style="edgeStyle=orthogonalEdgeStyle;rounded=0;orthogonalLoop=1;jettySize=auto;html=1;exitX=0.5;exitY=1;exitDx=0;exitDy=0;entryX=0.5;entryY=0;entryDx=0;entryDy=0;" parent="1" source="lTjCLl5CSfBBcBf3yB8B-53" target="lTjCLl5CSfBBcBf3yB8B-96" edge="1">
          <mxGeometry relative="1" as="geometry">
            <Array as="points" />
          </mxGeometry>
        </mxCell>
        <mxCell id="lTjCLl5CSfBBcBf3yB8B-53" value="合并二进制文件流" style="rounded=0;whiteSpace=wrap;html=1;" parent="1" vertex="1">
          <mxGeometry x="530" y="2338" width="120" height="60" as="geometry" />
        </mxCell>
        <mxCell id="lTjCLl5CSfBBcBf3yB8B-55" value="结束" style="ellipse;whiteSpace=wrap;html=1;" parent="1" vertex="1">
          <mxGeometry x="820" y="962.6499999999999" width="120" height="80" as="geometry" />
        </mxCell>
        <mxCell id="lTjCLl5CSfBBcBf3yB8B-57" value="结束" style="ellipse;whiteSpace=wrap;html=1;" parent="1" vertex="1">
          <mxGeometry x="1510" y="365" width="120" height="80" as="geometry" />
        </mxCell>
        <mxCell id="lTjCLl5CSfBBcBf3yB8B-65" style="edgeStyle=orthogonalEdgeStyle;rounded=0;orthogonalLoop=1;jettySize=auto;html=1;exitX=0;exitY=0.5;exitDx=0;exitDy=0;entryX=0;entryY=0.75;entryDx=0;entryDy=0;" parent="1" source="lTjCLl5CSfBBcBf3yB8B-62" target="UD72UffFnvkCBpp7IFEL-23" edge="1">
          <mxGeometry relative="1" as="geometry">
            <Array as="points">
              <mxPoint x="730" y="560" />
              <mxPoint x="730" y="95" />
            </Array>
          </mxGeometry>
        </mxCell>
        <mxCell id="lTjCLl5CSfBBcBf3yB8B-66" value="partNumer +1" style="edgeLabel;html=1;align=center;verticalAlign=middle;resizable=0;points=[];" parent="lTjCLl5CSfBBcBf3yB8B-65" vertex="1" connectable="0">
          <mxGeometry x="-0.0379" relative="1" as="geometry">
            <mxPoint as="offset" />
          </mxGeometry>
        </mxCell>
        <mxCell id="lTjCLl5CSfBBcBf3yB8B-70" style="edgeStyle=orthogonalEdgeStyle;rounded=0;orthogonalLoop=1;jettySize=auto;html=1;exitX=0.5;exitY=1;exitDx=0;exitDy=0;entryX=0.5;entryY=0;entryDx=0;entryDy=0;" parent="1" source="lTjCLl5CSfBBcBf3yB8B-62" target="lTjCLl5CSfBBcBf3yB8B-18" edge="1">
          <mxGeometry relative="1" as="geometry" />
        </mxCell>
        <mxCell id="lTjCLl5CSfBBcBf3yB8B-71" value="是" style="edgeLabel;html=1;align=center;verticalAlign=middle;resizable=0;points=[];" parent="lTjCLl5CSfBBcBf3yB8B-70" vertex="1" connectable="0">
          <mxGeometry x="-0.1264" y="-1" relative="1" as="geometry">
            <mxPoint as="offset" />
          </mxGeometry>
        </mxCell>
        <mxCell id="lTjCLl5CSfBBcBf3yB8B-62" value="是否所有分段上传完毕" style="rhombus;whiteSpace=wrap;html=1;" parent="1" vertex="1">
          <mxGeometry x="840" y="520" width="80" height="80" as="geometry" />
        </mxCell>
        <mxCell id="lTjCLl5CSfBBcBf3yB8B-77" style="edgeStyle=orthogonalEdgeStyle;rounded=0;orthogonalLoop=1;jettySize=auto;html=1;exitX=1;exitY=0.5;exitDx=0;exitDy=0;entryX=0.993;entryY=0.588;entryDx=0;entryDy=0;entryPerimeter=0;" parent="1" source="lTjCLl5CSfBBcBf3yB8B-74" target="lTjCLl5CSfBBcBf3yB8B-55" edge="1">
          <mxGeometry relative="1" as="geometry">
            <Array as="points">
              <mxPoint x="1290" y="810" />
              <mxPoint x="1290" y="1010" />
            </Array>
          </mxGeometry>
        </mxCell>
        <mxCell id="lTjCLl5CSfBBcBf3yB8B-80" value="是" style="edgeLabel;html=1;align=center;verticalAlign=middle;resizable=0;points=[];" parent="lTjCLl5CSfBBcBf3yB8B-77" vertex="1" connectable="0">
          <mxGeometry x="-0.2702" y="-3" relative="1" as="geometry">
            <mxPoint as="offset" />
          </mxGeometry>
        </mxCell>
        <mxCell id="R8NhTUtv1D92i6jCtsth-16" style="edgeStyle=orthogonalEdgeStyle;rounded=0;orthogonalLoop=1;jettySize=auto;html=1;exitX=0.5;exitY=0;exitDx=0;exitDy=0;entryX=0.5;entryY=1;entryDx=0;entryDy=0;" parent="1" source="lTjCLl5CSfBBcBf3yB8B-74" target="R8NhTUtv1D92i6jCtsth-12" edge="1">
          <mxGeometry relative="1" as="geometry" />
        </mxCell>
        <mxCell id="R8NhTUtv1D92i6jCtsth-20" value="否" style="edgeLabel;html=1;align=center;verticalAlign=middle;resizable=0;points=[];" parent="R8NhTUtv1D92i6jCtsth-16" vertex="1" connectable="0">
          <mxGeometry x="-0.1248" y="-1" relative="1" as="geometry">
            <mxPoint as="offset" />
          </mxGeometry>
        </mxCell>
        <mxCell id="lTjCLl5CSfBBcBf3yB8B-74" value="是否为任务失效" style="rhombus;whiteSpace=wrap;html=1;" parent="1" vertex="1">
          <mxGeometry x="1181" y="770" width="80" height="80" as="geometry" />
        </mxCell>
        <mxCell id="lTjCLl5CSfBBcBf3yB8B-84" style="rounded=0;orthogonalLoop=1;jettySize=auto;html=1;edgeStyle=orthogonalEdgeStyle;endArrow=none;endFill=0;entryX=0.991;entryY=0.62;entryDx=0;entryDy=0;entryPerimeter=0;" parent="1" source="R8NhTUtv1D92i6jCtsth-2" target="lTjCLl5CSfBBcBf3yB8B-55" edge="1">
          <mxGeometry relative="1" as="geometry">
            <mxPoint x="1150" y="1080" as="targetPoint" />
            <mxPoint x="1170" y="240" as="sourcePoint" />
            <Array as="points">
              <mxPoint x="1320" y="240" />
              <mxPoint x="1320" y="1010" />
              <mxPoint x="939" y="1010" />
            </Array>
          </mxGeometry>
        </mxCell>
        <mxCell id="lTjCLl5CSfBBcBf3yB8B-85" value="是" style="edgeLabel;html=1;align=center;verticalAlign=middle;resizable=0;points=[];" parent="lTjCLl5CSfBBcBf3yB8B-84" vertex="1" connectable="0">
          <mxGeometry x="-0.2539" y="4" relative="1" as="geometry">
            <mxPoint as="offset" />
          </mxGeometry>
        </mxCell>
        <mxCell id="lTjCLl5CSfBBcBf3yB8B-88" style="rounded=0;orthogonalLoop=1;jettySize=auto;html=1;exitX=0;exitY=0.5;exitDx=0;exitDy=0;exitPerimeter=0;" parent="1" source="lTjCLl5CSfBBcBf3yB8B-87" edge="1">
          <mxGeometry relative="1" as="geometry">
            <mxPoint x="900" y="350" as="targetPoint" />
          </mxGeometry>
        </mxCell>
        <mxCell id="lTjCLl5CSfBBcBf3yB8B-87" value="响应头：ETag:&quot;xxx&quot;" style="shape=note;whiteSpace=wrap;html=1;backgroundOutline=1;darkOpacity=0.05;" parent="1" vertex="1">
          <mxGeometry x="927" y="300" width="170" height="40" as="geometry" />
        </mxCell>
        <mxCell id="lTjCLl5CSfBBcBf3yB8B-96" value="结束" style="ellipse;whiteSpace=wrap;html=1;" parent="1" vertex="1">
          <mxGeometry x="530" y="2438" width="120" height="80" as="geometry" />
        </mxCell>
        <mxCell id="lTjCLl5CSfBBcBf3yB8B-99" style="edgeStyle=orthogonalEdgeStyle;rounded=0;orthogonalLoop=1;jettySize=auto;html=1;exitX=0.5;exitY=1;exitDx=0;exitDy=0;entryX=0.5;entryY=0;entryDx=0;entryDy=0;" parent="1" source="lTjCLl5CSfBBcBf3yB8B-97" target="lTjCLl5CSfBBcBf3yB8B-53" edge="1">
          <mxGeometry relative="1" as="geometry">
            <Array as="points">
              <mxPoint x="590" y="2320" />
              <mxPoint x="590" y="2320" />
            </Array>
          </mxGeometry>
        </mxCell>
        <mxCell id="lTjCLl5CSfBBcBf3yB8B-101" value="是" style="edgeLabel;html=1;align=center;verticalAlign=middle;resizable=0;points=[];" parent="lTjCLl5CSfBBcBf3yB8B-99" vertex="1" connectable="0">
          <mxGeometry x="-0.2818" y="1" relative="1" as="geometry">
            <mxPoint as="offset" />
          </mxGeometry>
        </mxCell>
        <mxCell id="lTjCLl5CSfBBcBf3yB8B-100" style="edgeStyle=orthogonalEdgeStyle;rounded=0;orthogonalLoop=1;jettySize=auto;html=1;exitX=0;exitY=0.5;exitDx=0;exitDy=0;entryX=0;entryY=0.75;entryDx=0;entryDy=0;" parent="1" source="lTjCLl5CSfBBcBf3yB8B-97" target="lTjCLl5CSfBBcBf3yB8B-43" edge="1">
          <mxGeometry relative="1" as="geometry">
            <Array as="points">
              <mxPoint x="480" y="2250" />
              <mxPoint x="480" y="1835" />
            </Array>
          </mxGeometry>
        </mxCell>
        <mxCell id="lTjCLl5CSfBBcBf3yB8B-102" value="否，设置新的Range" style="edgeLabel;html=1;align=center;verticalAlign=middle;resizable=0;points=[];" parent="lTjCLl5CSfBBcBf3yB8B-100" vertex="1" connectable="0">
          <mxGeometry x="0.0918" relative="1" as="geometry">
            <mxPoint as="offset" />
          </mxGeometry>
        </mxCell>
        <mxCell id="lTjCLl5CSfBBcBf3yB8B-97" value="是否所有分段下载完成" style="rhombus;whiteSpace=wrap;html=1;" parent="1" vertex="1">
          <mxGeometry x="550" y="2210" width="80" height="80" as="geometry" />
        </mxCell>
        <mxCell id="lTjCLl5CSfBBcBf3yB8B-103" value="&lt;div&gt;&amp;nbsp; Range: bytes=start-end&lt;/div&gt;&lt;div&gt;&amp;nbsp; Content-type：application/octet-stream&lt;/div&gt;" style="shape=note;whiteSpace=wrap;html=1;backgroundOutline=1;darkOpacity=0.05;" parent="1" vertex="1">
          <mxGeometry x="600" y="1870" width="230" height="40" as="geometry" />
        </mxCell>
        <mxCell id="lTjCLl5CSfBBcBf3yB8B-104" value="请求头" style="text;html=1;align=center;verticalAlign=middle;resizable=0;points=[];autosize=1;strokeColor=none;fillColor=none;" parent="1" vertex="1">
          <mxGeometry x="590" y="1850" width="60" height="30" as="geometry" />
        </mxCell>
        <mxCell id="lTjCLl5CSfBBcBf3yB8B-113" style="edgeStyle=orthogonalEdgeStyle;rounded=0;orthogonalLoop=1;jettySize=auto;html=1;exitX=1;exitY=0.5;exitDx=0;exitDy=0;entryX=0;entryY=0.5;entryDx=0;entryDy=0;" parent="1" source="lTjCLl5CSfBBcBf3yB8B-112" target="lTjCLl5CSfBBcBf3yB8B-96" edge="1">
          <mxGeometry relative="1" as="geometry" />
        </mxCell>
        <mxCell id="lTjCLl5CSfBBcBf3yB8B-112" value="前端提示文件下载失败" style="rounded=0;whiteSpace=wrap;html=1;" parent="1" vertex="1">
          <mxGeometry x="160" y="2448" width="120" height="60" as="geometry" />
        </mxCell>
        <mxCell id="lTjCLl5CSfBBcBf3yB8B-119" style="edgeStyle=orthogonalEdgeStyle;rounded=0;orthogonalLoop=1;jettySize=auto;html=1;exitX=0.5;exitY=1;exitDx=0;exitDy=0;entryX=0;entryY=0.5;entryDx=0;entryDy=0;" parent="1" source="lTjCLl5CSfBBcBf3yB8B-117" target="lTjCLl5CSfBBcBf3yB8B-55" edge="1">
          <mxGeometry relative="1" as="geometry">
            <mxPoint x="265.52941176470586" y="760" as="targetPoint" />
            <Array as="points">
              <mxPoint x="265" y="713" />
              <mxPoint x="266" y="1003" />
            </Array>
          </mxGeometry>
        </mxCell>
        <mxCell id="lTjCLl5CSfBBcBf3yB8B-121" value="是" style="edgeLabel;html=1;align=center;verticalAlign=middle;resizable=0;points=[];" parent="lTjCLl5CSfBBcBf3yB8B-119" vertex="1" connectable="0">
          <mxGeometry x="-0.1885" y="-3" relative="1" as="geometry">
            <mxPoint x="2" y="-285" as="offset" />
          </mxGeometry>
        </mxCell>
        <mxCell id="lTjCLl5CSfBBcBf3yB8B-126" style="edgeStyle=orthogonalEdgeStyle;rounded=0;orthogonalLoop=1;jettySize=auto;html=1;exitX=1;exitY=0.5;exitDx=0;exitDy=0;entryX=0;entryY=0.5;entryDx=0;entryDy=0;" parent="1" source="lTjCLl5CSfBBcBf3yB8B-117" target="UD72UffFnvkCBpp7IFEL-23" edge="1">
          <mxGeometry relative="1" as="geometry">
            <mxPoint x="464" y="629" as="targetPoint" />
            <Array as="points">
              <mxPoint x="560" y="520" />
              <mxPoint x="560" y="80" />
            </Array>
          </mxGeometry>
        </mxCell>
        <mxCell id="lTjCLl5CSfBBcBf3yB8B-127" value="否" style="edgeLabel;html=1;align=center;verticalAlign=middle;resizable=0;points=[];" parent="lTjCLl5CSfBBcBf3yB8B-126" vertex="1" connectable="0">
          <mxGeometry x="-0.0665" y="1" relative="1" as="geometry">
            <mxPoint x="1" as="offset" />
          </mxGeometry>
        </mxCell>
        <mxCell id="lTjCLl5CSfBBcBf3yB8B-117" value="是否为秒传" style="rhombus;whiteSpace=wrap;html=1;" parent="1" vertex="1">
          <mxGeometry x="225" y="480" width="80" height="80" as="geometry" />
        </mxCell>
        <mxCell id="36f4yx-A6JSLI--8gbKH-1" value="&lt;font style=&quot;font-size: 22px;&quot;&gt;文件上传流程图&lt;/font&gt;" style="text;html=1;strokeColor=none;fillColor=none;align=center;verticalAlign=middle;whiteSpace=wrap;rounded=0;" parent="1" vertex="1">
          <mxGeometry x="30" y="20" width="170" height="30" as="geometry" />
        </mxCell>
        <mxCell id="36f4yx-A6JSLI--8gbKH-2" value="&lt;font style=&quot;font-size: 22px;&quot;&gt;文件下载流程图&lt;/font&gt;" style="text;html=1;strokeColor=none;fillColor=none;align=center;verticalAlign=middle;whiteSpace=wrap;rounded=0;" parent="1" vertex="1">
          <mxGeometry x="20" y="1670" width="170" height="30" as="geometry" />
        </mxCell>
        <mxCell id="R8NhTUtv1D92i6jCtsth-4" style="edgeStyle=orthogonalEdgeStyle;rounded=0;orthogonalLoop=1;jettySize=auto;html=1;exitX=0.5;exitY=0;exitDx=0;exitDy=0;entryX=1;entryY=0.5;entryDx=0;entryDy=0;" parent="1" source="R8NhTUtv1D92i6jCtsth-2" target="UD72UffFnvkCBpp7IFEL-23" edge="1">
          <mxGeometry relative="1" as="geometry" />
        </mxCell>
        <mxCell id="R8NhTUtv1D92i6jCtsth-6" value="否" style="edgeLabel;html=1;align=center;verticalAlign=middle;resizable=0;points=[];" parent="R8NhTUtv1D92i6jCtsth-4" vertex="1" connectable="0">
          <mxGeometry x="-0.2757" y="-1" relative="1" as="geometry">
            <mxPoint as="offset" />
          </mxGeometry>
        </mxCell>
        <mxCell id="R8NhTUtv1D92i6jCtsth-2" value="上传任务&lt;br&gt;是否过期" style="rhombus;whiteSpace=wrap;html=1;" parent="1" vertex="1">
          <mxGeometry x="1020" y="200" width="80" height="80" as="geometry" />
        </mxCell>
        <mxCell id="R8NhTUtv1D92i6jCtsth-7" value="合并失败：&lt;br&gt;&lt;br&gt;.1. 任务失效&lt;br&gt;2. 分片信息有误（多、少、改）" style="shape=note;whiteSpace=wrap;html=1;backgroundOutline=1;darkOpacity=0.05;" parent="1" vertex="1">
          <mxGeometry x="970" y="770" width="170" height="80" as="geometry" />
        </mxCell>
        <mxCell id="R8NhTUtv1D92i6jCtsth-15" style="edgeStyle=orthogonalEdgeStyle;rounded=0;orthogonalLoop=1;jettySize=auto;html=1;exitX=0;exitY=0.5;exitDx=0;exitDy=0;" parent="1" source="R8NhTUtv1D92i6jCtsth-11" target="lTjCLl5CSfBBcBf3yB8B-18" edge="1">
          <mxGeometry relative="1" as="geometry" />
        </mxCell>
        <mxCell id="R8NhTUtv1D92i6jCtsth-11" value="删除多余partNumber对应关系" style="rounded=0;whiteSpace=wrap;html=1;" parent="1" vertex="1">
          <mxGeometry x="980" y="649.41" width="120" height="60" as="geometry" />
        </mxCell>
        <mxCell id="R8NhTUtv1D92i6jCtsth-13" style="edgeStyle=orthogonalEdgeStyle;rounded=0;orthogonalLoop=1;jettySize=auto;html=1;entryX=1;entryY=0.5;entryDx=0;entryDy=0;exitX=0.5;exitY=0;exitDx=0;exitDy=0;" parent="1" source="R8NhTUtv1D92i6jCtsth-12" target="UD72UffFnvkCBpp7IFEL-23" edge="1">
          <mxGeometry relative="1" as="geometry">
            <mxPoint x="1079.9999999999995" y="440.5882352941176" as="targetPoint" />
            <Array as="points">
              <mxPoint x="1220" y="80" />
            </Array>
          </mxGeometry>
        </mxCell>
        <mxCell id="R8NhTUtv1D92i6jCtsth-17" value="是" style="edgeLabel;html=1;align=center;verticalAlign=middle;resizable=0;points=[];" parent="R8NhTUtv1D92i6jCtsth-13" vertex="1" connectable="0">
          <mxGeometry x="-0.5539" y="-5" relative="1" as="geometry">
            <mxPoint as="offset" />
          </mxGeometry>
        </mxCell>
        <mxCell id="R8NhTUtv1D92i6jCtsth-14" style="edgeStyle=orthogonalEdgeStyle;rounded=0;orthogonalLoop=1;jettySize=auto;html=1;exitX=0;exitY=0.5;exitDx=0;exitDy=0;entryX=1;entryY=0.5;entryDx=0;entryDy=0;" parent="1" source="R8NhTUtv1D92i6jCtsth-12" target="R8NhTUtv1D92i6jCtsth-11" edge="1">
          <mxGeometry relative="1" as="geometry" />
        </mxCell>
        <mxCell id="R8NhTUtv1D92i6jCtsth-19" value="否" style="edgeLabel;html=1;align=center;verticalAlign=middle;resizable=0;points=[];" parent="R8NhTUtv1D92i6jCtsth-14" vertex="1" connectable="0">
          <mxGeometry x="-0.1396" y="1" relative="1" as="geometry">
            <mxPoint as="offset" />
          </mxGeometry>
        </mxCell>
        <mxCell id="R8NhTUtv1D92i6jCtsth-12" value="是否为分片缺失、错误" style="rhombus;whiteSpace=wrap;html=1;" parent="1" vertex="1">
          <mxGeometry x="1180" y="639.41" width="80" height="80" as="geometry" />
        </mxCell>
        <mxCell id="R8NhTUtv1D92i6jCtsth-25" style="edgeStyle=orthogonalEdgeStyle;rounded=0;orthogonalLoop=1;jettySize=auto;html=1;exitX=0.5;exitY=1;exitDx=0;exitDy=0;entryX=0.5;entryY=0;entryDx=0;entryDy=0;" parent="1" source="R8NhTUtv1D92i6jCtsth-26" target="R8NhTUtv1D92i6jCtsth-31" edge="1">
          <mxGeometry relative="1" as="geometry">
            <mxPoint x="1160" y="1926" as="targetPoint" />
          </mxGeometry>
        </mxCell>
        <mxCell id="R8NhTUtv1D92i6jCtsth-26" value="请求分段下载" style="rounded=0;whiteSpace=wrap;html=1;" parent="1" vertex="1">
          <mxGeometry x="1100" y="1776" width="120" height="60" as="geometry" />
        </mxCell>
        <mxCell id="R8NhTUtv1D92i6jCtsth-27" style="edgeStyle=orthogonalEdgeStyle;rounded=0;orthogonalLoop=1;jettySize=auto;html=1;exitX=1;exitY=0.5;exitDx=0;exitDy=0;entryX=1.003;entryY=0.39;entryDx=0;entryDy=0;entryPerimeter=0;" parent="1" source="R8NhTUtv1D92i6jCtsth-31" target="R8NhTUtv1D92i6jCtsth-26" edge="1">
          <mxGeometry relative="1" as="geometry">
            <mxPoint x="1417" y="1986" as="targetPoint" />
            <Array as="points">
              <mxPoint x="1450" y="1986" />
              <mxPoint x="1450" y="1799" />
            </Array>
          </mxGeometry>
        </mxCell>
        <mxCell id="R8NhTUtv1D92i6jCtsth-28" value="失败" style="edgeLabel;html=1;align=center;verticalAlign=middle;resizable=0;points=[];" parent="R8NhTUtv1D92i6jCtsth-27" vertex="1" connectable="0">
          <mxGeometry x="-0.142" y="-1" relative="1" as="geometry">
            <mxPoint as="offset" />
          </mxGeometry>
        </mxCell>
        <mxCell id="R8NhTUtv1D92i6jCtsth-29" style="edgeStyle=orthogonalEdgeStyle;rounded=0;orthogonalLoop=1;jettySize=auto;html=1;exitX=0.5;exitY=1;exitDx=0;exitDy=0;entryX=0.5;entryY=0;entryDx=0;entryDy=0;" parent="1" source="R8NhTUtv1D92i6jCtsth-31" target="R8NhTUtv1D92i6jCtsth-33" edge="1">
          <mxGeometry relative="1" as="geometry">
            <mxPoint x="1160" y="2216" as="targetPoint" />
          </mxGeometry>
        </mxCell>
        <mxCell id="R8NhTUtv1D92i6jCtsth-30" value="成功" style="edgeLabel;html=1;align=center;verticalAlign=middle;resizable=0;points=[];" parent="R8NhTUtv1D92i6jCtsth-29" vertex="1" connectable="0">
          <mxGeometry x="-0.1156" relative="1" as="geometry">
            <mxPoint as="offset" />
          </mxGeometry>
        </mxCell>
        <mxCell id="R8NhTUtv1D92i6jCtsth-31" value="&#xa;&lt;span style=&quot;color: rgb(0, 0, 0); font-family: Helvetica; font-size: 12px; font-style: normal; font-variant-ligatures: normal; font-variant-caps: normal; font-weight: 400; letter-spacing: normal; orphans: 2; text-align: center; text-indent: 0px; text-transform: none; widows: 2; word-spacing: 0px; -webkit-text-stroke-width: 0px; background-color: rgb(251, 251, 251); text-decoration-thickness: initial; text-decoration-style: initial; text-decoration-color: initial; float: none; display: inline !important;&quot;&gt;请求是否成功&lt;/span&gt;&#xa;&#xa;" style="rhombus;whiteSpace=wrap;html=1;" parent="1" vertex="1">
          <mxGeometry x="1120" y="1946" width="80" height="80" as="geometry" />
        </mxCell>
        <mxCell id="R8NhTUtv1D92i6jCtsth-32" style="edgeStyle=orthogonalEdgeStyle;rounded=0;orthogonalLoop=1;jettySize=auto;html=1;exitX=0.5;exitY=1;exitDx=0;exitDy=0;entryX=0.5;entryY=0;entryDx=0;entryDy=0;" parent="1" source="R8NhTUtv1D92i6jCtsth-33" target="R8NhTUtv1D92i6jCtsth-41" edge="1">
          <mxGeometry relative="1" as="geometry" />
        </mxCell>
        <mxCell id="R8NhTUtv1D92i6jCtsth-33" value="二进制文件流" style="rounded=0;whiteSpace=wrap;html=1;" parent="1" vertex="1">
          <mxGeometry x="1100" y="2096" width="120" height="60" as="geometry" />
        </mxCell>
        <mxCell id="R8NhTUtv1D92i6jCtsth-34" style="edgeStyle=orthogonalEdgeStyle;rounded=0;orthogonalLoop=1;jettySize=auto;html=1;exitX=0.5;exitY=1;exitDx=0;exitDy=0;entryX=0.5;entryY=0;entryDx=0;entryDy=0;" parent="1" source="R8NhTUtv1D92i6jCtsth-35" target="R8NhTUtv1D92i6jCtsth-36" edge="1">
          <mxGeometry relative="1" as="geometry">
            <Array as="points" />
          </mxGeometry>
        </mxCell>
        <mxCell id="R8NhTUtv1D92i6jCtsth-35" value="合并二进制文件流" style="rounded=0;whiteSpace=wrap;html=1;" parent="1" vertex="1">
          <mxGeometry x="1100" y="2324" width="120" height="60" as="geometry" />
        </mxCell>
        <mxCell id="R8NhTUtv1D92i6jCtsth-36" value="结束" style="ellipse;whiteSpace=wrap;html=1;" parent="1" vertex="1">
          <mxGeometry x="1100" y="2424" width="120" height="80" as="geometry" />
        </mxCell>
        <mxCell id="R8NhTUtv1D92i6jCtsth-37" style="edgeStyle=orthogonalEdgeStyle;rounded=0;orthogonalLoop=1;jettySize=auto;html=1;exitX=0.5;exitY=1;exitDx=0;exitDy=0;entryX=0.5;entryY=0;entryDx=0;entryDy=0;" parent="1" source="R8NhTUtv1D92i6jCtsth-41" target="R8NhTUtv1D92i6jCtsth-35" edge="1">
          <mxGeometry relative="1" as="geometry">
            <Array as="points">
              <mxPoint x="1160" y="2306" />
              <mxPoint x="1160" y="2306" />
            </Array>
          </mxGeometry>
        </mxCell>
        <mxCell id="R8NhTUtv1D92i6jCtsth-38" value="是" style="edgeLabel;html=1;align=center;verticalAlign=middle;resizable=0;points=[];" parent="R8NhTUtv1D92i6jCtsth-37" vertex="1" connectable="0">
          <mxGeometry x="-0.2818" y="1" relative="1" as="geometry">
            <mxPoint as="offset" />
          </mxGeometry>
        </mxCell>
        <mxCell id="R8NhTUtv1D92i6jCtsth-39" style="edgeStyle=orthogonalEdgeStyle;rounded=0;orthogonalLoop=1;jettySize=auto;html=1;exitX=0;exitY=0.5;exitDx=0;exitDy=0;entryX=0;entryY=0.75;entryDx=0;entryDy=0;" parent="1" source="R8NhTUtv1D92i6jCtsth-41" target="R8NhTUtv1D92i6jCtsth-26" edge="1">
          <mxGeometry relative="1" as="geometry">
            <Array as="points">
              <mxPoint x="1050" y="2236" />
              <mxPoint x="1050" y="1821" />
            </Array>
          </mxGeometry>
        </mxCell>
        <mxCell id="R8NhTUtv1D92i6jCtsth-40" value="否，设置新的Range" style="edgeLabel;html=1;align=center;verticalAlign=middle;resizable=0;points=[];" parent="R8NhTUtv1D92i6jCtsth-39" vertex="1" connectable="0">
          <mxGeometry x="0.0918" relative="1" as="geometry">
            <mxPoint as="offset" />
          </mxGeometry>
        </mxCell>
        <mxCell id="R8NhTUtv1D92i6jCtsth-41" value="是否所有分段下载完成" style="rhombus;whiteSpace=wrap;html=1;" parent="1" vertex="1">
          <mxGeometry x="1120" y="2196" width="80" height="80" as="geometry" />
        </mxCell>
        <mxCell id="R8NhTUtv1D92i6jCtsth-42" value="&lt;div&gt;&amp;nbsp; Range: bytes=start-end&lt;/div&gt;&lt;div&gt;&amp;nbsp; Content-type：application/octet-stream&lt;/div&gt;" style="shape=note;whiteSpace=wrap;html=1;backgroundOutline=1;darkOpacity=0.05;" parent="1" vertex="1">
          <mxGeometry x="1170" y="1856" width="230" height="40" as="geometry" />
        </mxCell>
        <mxCell id="R8NhTUtv1D92i6jCtsth-43" value="请求头" style="text;html=1;align=center;verticalAlign=middle;resizable=0;points=[];autosize=1;strokeColor=none;fillColor=none;" parent="1" vertex="1">
          <mxGeometry x="1160" y="1836" width="60" height="30" as="geometry" />
        </mxCell>
        <mxCell id="R8NhTUtv1D92i6jCtsth-50" value="&lt;font style=&quot;font-size: 22px;&quot;&gt;1.使用head探测后下载文件&lt;/font&gt;" style="text;html=1;strokeColor=none;fillColor=none;align=center;verticalAlign=middle;whiteSpace=wrap;rounded=0;" parent="1" vertex="1">
          <mxGeometry x="20" y="1739" width="270" height="21" as="geometry" />
        </mxCell>
        <mxCell id="R8NhTUtv1D92i6jCtsth-51" value="&lt;font style=&quot;font-size: 22px;&quot;&gt;2.不使用head探测后下载文件&lt;/font&gt;" style="text;html=1;strokeColor=none;fillColor=none;align=center;verticalAlign=middle;whiteSpace=wrap;rounded=0;" parent="1" vertex="1">
          <mxGeometry x="990" y="1739" width="310" height="21" as="geometry" />
        </mxCell>
        <mxCell id="dhi5RwKr7KtYZrTn9pEy-2" value="&lt;font style=&quot;font-size: 22px;&quot;&gt;文件删除&lt;/font&gt;" style="text;html=1;align=center;verticalAlign=middle;resizable=0;points=[];autosize=1;strokeColor=none;fillColor=none;" parent="1" vertex="1">
          <mxGeometry x="55" y="2633" width="110" height="40" as="geometry" />
        </mxCell>
        <mxCell id="dhi5RwKr7KtYZrTn9pEy-5" style="edgeStyle=orthogonalEdgeStyle;rounded=0;orthogonalLoop=1;jettySize=auto;html=1;exitX=0.5;exitY=1;exitDx=0;exitDy=0;entryX=0.5;entryY=0;entryDx=0;entryDy=0;" parent="1" source="dhi5RwKr7KtYZrTn9pEy-3" target="dhi5RwKr7KtYZrTn9pEy-4" edge="1">
          <mxGeometry relative="1" as="geometry" />
        </mxCell>
        <mxCell id="dhi5RwKr7KtYZrTn9pEy-3" value="用户删除文件" style="whiteSpace=wrap;html=1;" parent="1" vertex="1">
          <mxGeometry x="150" y="2710" width="120" height="60" as="geometry" />
        </mxCell>
        <mxCell id="wueXISRmm8zRBbYCRRFS-3" value="" style="edgeStyle=orthogonalEdgeStyle;rounded=0;orthogonalLoop=1;jettySize=auto;html=1;" parent="1" source="dhi5RwKr7KtYZrTn9pEy-4" target="wueXISRmm8zRBbYCRRFS-2" edge="1">
          <mxGeometry relative="1" as="geometry" />
        </mxCell>
        <mxCell id="dhi5RwKr7KtYZrTn9pEy-4" value="获取锁" style="whiteSpace=wrap;html=1;" parent="1" vertex="1">
          <mxGeometry x="150" y="2847" width="120" height="60" as="geometry" />
        </mxCell>
        <mxCell id="dhi5RwKr7KtYZrTn9pEy-12" value="是" style="edgeStyle=orthogonalEdgeStyle;rounded=0;orthogonalLoop=1;jettySize=auto;html=1;exitX=0.5;exitY=1;exitDx=0;exitDy=0;entryX=0.5;entryY=0;entryDx=0;entryDy=0;" parent="1" source="dhi5RwKr7KtYZrTn9pEy-8" target="dhi5RwKr7KtYZrTn9pEy-11" edge="1">
          <mxGeometry relative="1" as="geometry" />
        </mxCell>
        <mxCell id="wueXISRmm8zRBbYCRRFS-5" style="edgeStyle=orthogonalEdgeStyle;rounded=0;orthogonalLoop=1;jettySize=auto;html=1;exitX=1;exitY=0.5;exitDx=0;exitDy=0;" parent="1" source="dhi5RwKr7KtYZrTn9pEy-8" target="wueXISRmm8zRBbYCRRFS-6" edge="1">
          <mxGeometry relative="1" as="geometry">
            <mxPoint x="510.13338216145826" y="4046.533671061198" as="targetPoint" />
          </mxGeometry>
        </mxCell>
        <mxCell id="wueXISRmm8zRBbYCRRFS-8" value="否" style="edgeLabel;html=1;align=center;verticalAlign=middle;resizable=0;points=[];" parent="wueXISRmm8zRBbYCRRFS-5" vertex="1" connectable="0">
          <mxGeometry x="-0.6376" relative="1" as="geometry">
            <mxPoint as="offset" />
          </mxGeometry>
        </mxCell>
        <mxCell id="dhi5RwKr7KtYZrTn9pEy-8" value="是否获取到锁" style="rhombus;whiteSpace=wrap;html=1;" parent="1" vertex="1">
          <mxGeometry x="170" y="3053" width="80" height="80" as="geometry" />
        </mxCell>
        <mxCell id="dhi5RwKr7KtYZrTn9pEy-14" value="是" style="edgeStyle=orthogonalEdgeStyle;rounded=0;orthogonalLoop=1;jettySize=auto;html=1;exitX=0.5;exitY=1;exitDx=0;exitDy=0;" parent="1" source="dhi5RwKr7KtYZrTn9pEy-11" target="dhi5RwKr7KtYZrTn9pEy-13" edge="1">
          <mxGeometry relative="1" as="geometry" />
        </mxCell>
        <mxCell id="dhi5RwKr7KtYZrTn9pEy-28" style="edgeStyle=orthogonalEdgeStyle;rounded=0;orthogonalLoop=1;jettySize=auto;html=1;exitX=1;exitY=0.5;exitDx=0;exitDy=0;entryX=1;entryY=0.5;entryDx=0;entryDy=0;" parent="1" source="dhi5RwKr7KtYZrTn9pEy-11" target="dhi5RwKr7KtYZrTn9pEy-24" edge="1">
          <mxGeometry relative="1" as="geometry">
            <Array as="points">
              <mxPoint x="450" y="3190" />
              <mxPoint x="450" y="3913" />
            </Array>
          </mxGeometry>
        </mxCell>
        <mxCell id="dhi5RwKr7KtYZrTn9pEy-29" value="否" style="edgeLabel;html=1;align=center;verticalAlign=middle;resizable=0;points=[];" parent="dhi5RwKr7KtYZrTn9pEy-28" vertex="1" connectable="0">
          <mxGeometry x="-0.232" y="2" relative="1" as="geometry">
            <mxPoint as="offset" />
          </mxGeometry>
        </mxCell>
        <mxCell id="dhi5RwKr7KtYZrTn9pEy-11" value="查询文件纳管表是否存在记录" style="rhombus;whiteSpace=wrap;html=1;" parent="1" vertex="1">
          <mxGeometry x="170" y="3150" width="80" height="80" as="geometry" />
        </mxCell>
        <mxCell id="dhi5RwKr7KtYZrTn9pEy-16" style="edgeStyle=orthogonalEdgeStyle;rounded=0;orthogonalLoop=1;jettySize=auto;html=1;exitX=0.5;exitY=1;exitDx=0;exitDy=0;entryX=0.5;entryY=0;entryDx=0;entryDy=0;" parent="1" source="dhi5RwKr7KtYZrTn9pEy-13" target="dhi5RwKr7KtYZrTn9pEy-15" edge="1">
          <mxGeometry relative="1" as="geometry" />
        </mxCell>
        <mxCell id="dhi5RwKr7KtYZrTn9pEy-13" value="删除记录" style="whiteSpace=wrap;html=1;" parent="1" vertex="1">
          <mxGeometry x="150" y="3280" width="120" height="60" as="geometry" />
        </mxCell>
        <mxCell id="dhi5RwKr7KtYZrTn9pEy-18" value="是" style="edgeStyle=orthogonalEdgeStyle;rounded=0;orthogonalLoop=1;jettySize=auto;html=1;exitX=0.5;exitY=1;exitDx=0;exitDy=0;" parent="1" source="dhi5RwKr7KtYZrTn9pEy-15" edge="1">
          <mxGeometry relative="1" as="geometry">
            <mxPoint x="210" y="3530" as="targetPoint" />
          </mxGeometry>
        </mxCell>
        <mxCell id="dhi5RwKr7KtYZrTn9pEy-22" style="edgeStyle=orthogonalEdgeStyle;rounded=0;orthogonalLoop=1;jettySize=auto;html=1;exitX=0;exitY=0.5;exitDx=0;exitDy=0;entryX=0;entryY=0.5;entryDx=0;entryDy=0;" parent="1" source="dhi5RwKr7KtYZrTn9pEy-19" target="dhi5RwKr7KtYZrTn9pEy-20" edge="1">
          <mxGeometry relative="1" as="geometry">
            <Array as="points">
              <mxPoint x="80" y="3570" />
              <mxPoint x="80" y="3791" />
            </Array>
          </mxGeometry>
        </mxCell>
        <mxCell id="dhi5RwKr7KtYZrTn9pEy-23" value="否" style="edgeLabel;html=1;align=center;verticalAlign=middle;resizable=0;points=[];" parent="dhi5RwKr7KtYZrTn9pEy-22" vertex="1" connectable="0">
          <mxGeometry x="-0.1251" y="-2" relative="1" as="geometry">
            <mxPoint as="offset" />
          </mxGeometry>
        </mxCell>
        <mxCell id="dhi5RwKr7KtYZrTn9pEy-26" style="edgeStyle=orthogonalEdgeStyle;rounded=0;orthogonalLoop=1;jettySize=auto;html=1;exitX=1;exitY=0.5;exitDx=0;exitDy=0;entryX=1;entryY=0.5;entryDx=0;entryDy=0;" parent="1" source="dhi5RwKr7KtYZrTn9pEy-15" target="dhi5RwKr7KtYZrTn9pEy-24" edge="1">
          <mxGeometry relative="1" as="geometry">
            <Array as="points">
              <mxPoint x="350" y="3430" />
              <mxPoint x="350" y="3913" />
            </Array>
          </mxGeometry>
        </mxCell>
        <mxCell id="dhi5RwKr7KtYZrTn9pEy-27" value="否" style="edgeLabel;html=1;align=center;verticalAlign=middle;resizable=0;points=[];" parent="dhi5RwKr7KtYZrTn9pEy-26" vertex="1" connectable="0">
          <mxGeometry x="-0.1792" y="2" relative="1" as="geometry">
            <mxPoint as="offset" />
          </mxGeometry>
        </mxCell>
        <mxCell id="dhi5RwKr7KtYZrTn9pEy-15" value="是否释放实际储存空间" style="rhombus;whiteSpace=wrap;html=1;" parent="1" vertex="1">
          <mxGeometry x="170" y="3390" width="80" height="80" as="geometry" />
        </mxCell>
        <mxCell id="1tIn3k1aAm2teVDTc2TQ-9" value="是" style="edgeStyle=orthogonalEdgeStyle;rounded=0;orthogonalLoop=1;jettySize=auto;html=1;exitX=0.5;exitY=1;exitDx=0;exitDy=0;" parent="1" source="dhi5RwKr7KtYZrTn9pEy-19" target="1tIn3k1aAm2teVDTc2TQ-2" edge="1">
          <mxGeometry relative="1" as="geometry" />
        </mxCell>
        <mxCell id="dhi5RwKr7KtYZrTn9pEy-19" value="是否需要删除minio对象" style="rhombus;whiteSpace=wrap;html=1;" parent="1" vertex="1">
          <mxGeometry x="170" y="3530" width="80" height="80" as="geometry" />
        </mxCell>
        <mxCell id="dhi5RwKr7KtYZrTn9pEy-25" style="edgeStyle=orthogonalEdgeStyle;rounded=0;orthogonalLoop=1;jettySize=auto;html=1;exitX=0.5;exitY=1;exitDx=0;exitDy=0;entryX=0.5;entryY=0;entryDx=0;entryDy=0;" parent="1" source="dhi5RwKr7KtYZrTn9pEy-20" target="dhi5RwKr7KtYZrTn9pEy-24" edge="1">
          <mxGeometry relative="1" as="geometry" />
        </mxCell>
        <mxCell id="dhi5RwKr7KtYZrTn9pEy-20" value="计算存储空间" style="whiteSpace=wrap;html=1;" parent="1" vertex="1">
          <mxGeometry x="150" y="3761" width="120" height="60" as="geometry" />
        </mxCell>
        <mxCell id="dhi5RwKr7KtYZrTn9pEy-31" style="edgeStyle=orthogonalEdgeStyle;rounded=0;orthogonalLoop=1;jettySize=auto;html=1;exitX=0.5;exitY=1;exitDx=0;exitDy=0;entryX=0.5;entryY=0;entryDx=0;entryDy=0;" parent="1" source="dhi5RwKr7KtYZrTn9pEy-24" target="dhi5RwKr7KtYZrTn9pEy-30" edge="1">
          <mxGeometry relative="1" as="geometry" />
        </mxCell>
        <mxCell id="dhi5RwKr7KtYZrTn9pEy-24" value="释放锁" style="whiteSpace=wrap;html=1;" parent="1" vertex="1">
          <mxGeometry x="150" y="3883" width="120" height="60" as="geometry" />
        </mxCell>
        <mxCell id="dhi5RwKr7KtYZrTn9pEy-30" value="结束" style="ellipse;whiteSpace=wrap;html=1;" parent="1" vertex="1">
          <mxGeometry x="170" y="4036" width="80" height="80" as="geometry" />
        </mxCell>
        <mxCell id="1tIn3k1aAm2teVDTc2TQ-6" style="edgeStyle=orthogonalEdgeStyle;rounded=0;orthogonalLoop=1;jettySize=auto;html=1;exitX=0.5;exitY=1;exitDx=0;exitDy=0;" parent="1" source="1tIn3k1aAm2teVDTc2TQ-2" edge="1">
          <mxGeometry relative="1" as="geometry">
            <mxPoint x="209" y="3759" as="targetPoint" />
            <Array as="points">
              <mxPoint x="209" y="3737" />
            </Array>
          </mxGeometry>
        </mxCell>
        <mxCell id="1tIn3k1aAm2teVDTc2TQ-2" value="删除minio对象" style="whiteSpace=wrap;html=1;" parent="1" vertex="1">
          <mxGeometry x="150" y="3661" width="120" height="60" as="geometry" />
        </mxCell>
        <mxCell id="A0Nvpe352bVaeRtg3HX9-34" value="&lt;font style=&quot;font-size: 22px;&quot;&gt;文件上传后台处理&lt;/font&gt;" style="text;html=1;align=center;verticalAlign=middle;resizable=0;points=[];autosize=1;strokeColor=none;fillColor=none;" parent="1" vertex="1">
          <mxGeometry x="757" y="2635" width="194" height="38" as="geometry" />
        </mxCell>
        <mxCell id="A0Nvpe352bVaeRtg3HX9-92" style="edgeStyle=orthogonalEdgeStyle;rounded=0;orthogonalLoop=1;jettySize=auto;html=1;exitX=0.5;exitY=1;exitDx=0;exitDy=0;entryX=0.5;entryY=0;entryDx=0;entryDy=0;" parent="1" source="A0Nvpe352bVaeRtg3HX9-93" target="A0Nvpe352bVaeRtg3HX9-118" edge="1">
          <mxGeometry relative="1" as="geometry" />
        </mxCell>
        <mxCell id="A0Nvpe352bVaeRtg3HX9-93" value="调用开启预上传接口" style="rounded=0;whiteSpace=wrap;html=1;" parent="1" vertex="1">
          <mxGeometry x="872" y="2736" width="120" height="60" as="geometry" />
        </mxCell>
        <mxCell id="wueXISRmm8zRBbYCRRFS-12" value="" style="edgeStyle=orthogonalEdgeStyle;rounded=0;orthogonalLoop=1;jettySize=auto;html=1;" parent="1" source="A0Nvpe352bVaeRtg3HX9-95" target="wueXISRmm8zRBbYCRRFS-11" edge="1">
          <mxGeometry relative="1" as="geometry" />
        </mxCell>
        <mxCell id="A0Nvpe352bVaeRtg3HX9-95" value="获取锁" style="whiteSpace=wrap;html=1;" parent="1" vertex="1">
          <mxGeometry x="872" y="2926" width="120" height="60" as="geometry" />
        </mxCell>
        <mxCell id="A0Nvpe352bVaeRtg3HX9-97" value="是" style="edgeStyle=orthogonalEdgeStyle;rounded=0;orthogonalLoop=1;jettySize=auto;html=1;exitX=0.5;exitY=1;exitDx=0;exitDy=0;entryX=0.5;entryY=0;entryDx=0;entryDy=0;" parent="1" source="A0Nvpe352bVaeRtg3HX9-98" edge="1">
          <mxGeometry relative="1" as="geometry">
            <mxPoint x="932" y="3191" as="targetPoint" />
          </mxGeometry>
        </mxCell>
        <mxCell id="wueXISRmm8zRBbYCRRFS-15" style="edgeStyle=orthogonalEdgeStyle;rounded=0;orthogonalLoop=1;jettySize=auto;html=1;exitX=1;exitY=0.5;exitDx=0;exitDy=0;entryX=0.994;entryY=0.401;entryDx=0;entryDy=0;entryPerimeter=0;" parent="1" source="A0Nvpe352bVaeRtg3HX9-98" target="A0Nvpe352bVaeRtg3HX9-112" edge="1">
          <mxGeometry relative="1" as="geometry" />
        </mxCell>
        <mxCell id="wueXISRmm8zRBbYCRRFS-16" value="否" style="edgeLabel;html=1;align=center;verticalAlign=middle;resizable=0;points=[];" parent="wueXISRmm8zRBbYCRRFS-15" vertex="1" connectable="0">
          <mxGeometry x="-0.5913" relative="1" as="geometry">
            <mxPoint as="offset" />
          </mxGeometry>
        </mxCell>
        <mxCell id="A0Nvpe352bVaeRtg3HX9-98" value="是否获取锁" style="rhombus;whiteSpace=wrap;html=1;" parent="1" vertex="1">
          <mxGeometry x="892" y="3085" width="80" height="80" as="geometry" />
        </mxCell>
        <mxCell id="A0Nvpe352bVaeRtg3HX9-99" value="是" style="edgeStyle=orthogonalEdgeStyle;rounded=0;orthogonalLoop=1;jettySize=auto;html=1;exitX=0.5;exitY=1;exitDx=0;exitDy=0;entryX=0.5;entryY=0;entryDx=0;entryDy=0;" parent="1" source="A0Nvpe352bVaeRtg3HX9-101" target="A0Nvpe352bVaeRtg3HX9-103" edge="1">
          <mxGeometry relative="1" as="geometry" />
        </mxCell>
        <mxCell id="A0Nvpe352bVaeRtg3HX9-100" style="edgeStyle=orthogonalEdgeStyle;rounded=0;orthogonalLoop=1;jettySize=auto;html=1;exitX=1;exitY=0.5;exitDx=0;exitDy=0;entryX=0.5;entryY=0;entryDx=0;entryDy=0;" parent="1" source="A0Nvpe352bVaeRtg3HX9-101" target="A0Nvpe352bVaeRtg3HX9-110" edge="1">
          <mxGeometry relative="1" as="geometry" />
        </mxCell>
        <mxCell id="A0Nvpe352bVaeRtg3HX9-119" value="否" style="edgeLabel;html=1;align=center;verticalAlign=middle;resizable=0;points=[];" parent="A0Nvpe352bVaeRtg3HX9-100" vertex="1" connectable="0">
          <mxGeometry x="-0.1047" y="-2" relative="1" as="geometry">
            <mxPoint as="offset" />
          </mxGeometry>
        </mxCell>
        <mxCell id="A0Nvpe352bVaeRtg3HX9-101" value="查询文件纳管表是否存在文件记录" style="rhombus;whiteSpace=wrap;html=1;" parent="1" vertex="1">
          <mxGeometry x="892" y="3191" width="80" height="80" as="geometry" />
        </mxCell>
        <mxCell id="A0Nvpe352bVaeRtg3HX9-102" style="edgeStyle=orthogonalEdgeStyle;rounded=0;orthogonalLoop=1;jettySize=auto;html=1;exitX=0.5;exitY=1;exitDx=0;exitDy=0;entryX=0.5;entryY=0;entryDx=0;entryDy=0;" parent="1" source="A0Nvpe352bVaeRtg3HX9-103" target="A0Nvpe352bVaeRtg3HX9-108" edge="1">
          <mxGeometry relative="1" as="geometry" />
        </mxCell>
        <mxCell id="A0Nvpe352bVaeRtg3HX9-103" value="新增文件记录" style="whiteSpace=wrap;html=1;" parent="1" vertex="1">
          <mxGeometry x="872" y="3315" width="120" height="60" as="geometry" />
        </mxCell>
        <mxCell id="A0Nvpe352bVaeRtg3HX9-121" style="edgeStyle=orthogonalEdgeStyle;rounded=0;orthogonalLoop=1;jettySize=auto;html=1;exitX=0.5;exitY=1;exitDx=0;exitDy=0;" parent="1" source="A0Nvpe352bVaeRtg3HX9-105" target="A0Nvpe352bVaeRtg3HX9-120" edge="1">
          <mxGeometry relative="1" as="geometry" />
        </mxCell>
        <mxCell id="A0Nvpe352bVaeRtg3HX9-105" value="释放锁" style="whiteSpace=wrap;html=1;" parent="1" vertex="1">
          <mxGeometry x="872" y="3542" width="120" height="60" as="geometry" />
        </mxCell>
        <mxCell id="A0Nvpe352bVaeRtg3HX9-106" value="结束" style="ellipse;whiteSpace=wrap;html=1;" parent="1" vertex="1">
          <mxGeometry x="892" y="3809" width="80" height="80" as="geometry" />
        </mxCell>
        <mxCell id="A0Nvpe352bVaeRtg3HX9-107" style="edgeStyle=orthogonalEdgeStyle;rounded=0;orthogonalLoop=1;jettySize=auto;html=1;exitX=0.5;exitY=1;exitDx=0;exitDy=0;entryX=0.5;entryY=0;entryDx=0;entryDy=0;" parent="1" source="A0Nvpe352bVaeRtg3HX9-108" target="A0Nvpe352bVaeRtg3HX9-105" edge="1">
          <mxGeometry relative="1" as="geometry" />
        </mxCell>
        <mxCell id="A0Nvpe352bVaeRtg3HX9-108" value="计算存储空间" style="whiteSpace=wrap;html=1;" parent="1" vertex="1">
          <mxGeometry x="872" y="3426" width="120" height="60" as="geometry" />
        </mxCell>
        <mxCell id="A0Nvpe352bVaeRtg3HX9-109" style="edgeStyle=orthogonalEdgeStyle;rounded=0;orthogonalLoop=1;jettySize=auto;html=1;exitX=0.5;exitY=1;exitDx=0;exitDy=0;entryX=0.5;entryY=0;entryDx=0;entryDy=0;" parent="1" source="A0Nvpe352bVaeRtg3HX9-110" target="A0Nvpe352bVaeRtg3HX9-112" edge="1">
          <mxGeometry relative="1" as="geometry" />
        </mxCell>
        <mxCell id="A0Nvpe352bVaeRtg3HX9-110" value="释放锁" style="whiteSpace=wrap;html=1;" parent="1" vertex="1">
          <mxGeometry x="1093" y="3315" width="120" height="60" as="geometry" />
        </mxCell>
        <mxCell id="A0Nvpe352bVaeRtg3HX9-111" style="edgeStyle=orthogonalEdgeStyle;rounded=0;orthogonalLoop=1;jettySize=auto;html=1;exitX=0.5;exitY=1;exitDx=0;exitDy=0;" parent="1" source="A0Nvpe352bVaeRtg3HX9-112" target="A0Nvpe352bVaeRtg3HX9-114" edge="1">
          <mxGeometry relative="1" as="geometry" />
        </mxCell>
        <mxCell id="A0Nvpe352bVaeRtg3HX9-112" value="新增文件任务表记录" style="whiteSpace=wrap;html=1;" parent="1" vertex="1">
          <mxGeometry x="1093" y="3426" width="120" height="60" as="geometry" />
        </mxCell>
        <mxCell id="A0Nvpe352bVaeRtg3HX9-113" style="edgeStyle=orthogonalEdgeStyle;rounded=0;orthogonalLoop=1;jettySize=auto;html=1;exitX=0.5;exitY=1;exitDx=0;exitDy=0;entryX=1;entryY=0.5;entryDx=0;entryDy=0;" parent="1" source="A0Nvpe352bVaeRtg3HX9-114" target="A0Nvpe352bVaeRtg3HX9-106" edge="1">
          <mxGeometry relative="1" as="geometry" />
        </mxCell>
        <mxCell id="A0Nvpe352bVaeRtg3HX9-114" value="上传任务id返回给前端" style="whiteSpace=wrap;html=1;" parent="1" vertex="1">
          <mxGeometry x="1093" y="3542" width="120" height="60" as="geometry" />
        </mxCell>
        <mxCell id="A0Nvpe352bVaeRtg3HX9-115" value="是" style="edgeStyle=orthogonalEdgeStyle;rounded=0;orthogonalLoop=1;jettySize=auto;html=1;exitX=0.5;exitY=1;exitDx=0;exitDy=0;entryX=0.5;entryY=0;entryDx=0;entryDy=0;" parent="1" source="A0Nvpe352bVaeRtg3HX9-118" target="A0Nvpe352bVaeRtg3HX9-95" edge="1">
          <mxGeometry relative="1" as="geometry" />
        </mxCell>
        <mxCell id="A0Nvpe352bVaeRtg3HX9-116" style="edgeStyle=orthogonalEdgeStyle;rounded=0;orthogonalLoop=1;jettySize=auto;html=1;exitX=1;exitY=0.5;exitDx=0;exitDy=0;entryX=1;entryY=0.5;entryDx=0;entryDy=0;" parent="1" source="A0Nvpe352bVaeRtg3HX9-118" target="A0Nvpe352bVaeRtg3HX9-112" edge="1">
          <mxGeometry relative="1" as="geometry">
            <Array as="points">
              <mxPoint x="1307" y="2860" />
              <mxPoint x="1307" y="3456" />
            </Array>
          </mxGeometry>
        </mxCell>
        <mxCell id="A0Nvpe352bVaeRtg3HX9-117" value="否" style="edgeLabel;html=1;align=center;verticalAlign=middle;resizable=0;points=[];" parent="A0Nvpe352bVaeRtg3HX9-116" vertex="1" connectable="0">
          <mxGeometry x="0.0279" y="-1" relative="1" as="geometry">
            <mxPoint y="1" as="offset" />
          </mxGeometry>
        </mxCell>
        <mxCell id="A0Nvpe352bVaeRtg3HX9-118" value="是否开启秒传" style="rhombus;whiteSpace=wrap;html=1;" parent="1" vertex="1">
          <mxGeometry x="892" y="2821" width="80" height="80" as="geometry" />
        </mxCell>
        <mxCell id="A0Nvpe352bVaeRtg3HX9-122" style="edgeStyle=orthogonalEdgeStyle;rounded=0;orthogonalLoop=1;jettySize=auto;html=1;exitX=0.5;exitY=1;exitDx=0;exitDy=0;" parent="1" source="A0Nvpe352bVaeRtg3HX9-120" target="A0Nvpe352bVaeRtg3HX9-106" edge="1">
          <mxGeometry relative="1" as="geometry" />
        </mxCell>
        <mxCell id="A0Nvpe352bVaeRtg3HX9-120" value="上传完成" style="whiteSpace=wrap;html=1;" parent="1" vertex="1">
          <mxGeometry x="872" y="3670" width="120" height="60" as="geometry" />
        </mxCell>
        <mxCell id="wueXISRmm8zRBbYCRRFS-4" value="" style="edgeStyle=orthogonalEdgeStyle;rounded=0;orthogonalLoop=1;jettySize=auto;html=1;" parent="1" source="wueXISRmm8zRBbYCRRFS-2" target="dhi5RwKr7KtYZrTn9pEy-8" edge="1">
          <mxGeometry relative="1" as="geometry" />
        </mxCell>
        <mxCell id="wueXISRmm8zRBbYCRRFS-2" value="阻塞" style="rounded=0;whiteSpace=wrap;html=1;" parent="1" vertex="1">
          <mxGeometry x="150" y="2968" width="120" height="60" as="geometry" />
        </mxCell>
        <mxCell id="wueXISRmm8zRBbYCRRFS-7" style="edgeStyle=orthogonalEdgeStyle;rounded=0;orthogonalLoop=1;jettySize=auto;html=1;" parent="1" source="wueXISRmm8zRBbYCRRFS-6" target="dhi5RwKr7KtYZrTn9pEy-30" edge="1">
          <mxGeometry relative="1" as="geometry" />
        </mxCell>
        <mxCell id="wueXISRmm8zRBbYCRRFS-6" value="文件被占用" style="rounded=0;whiteSpace=wrap;html=1;" parent="1" vertex="1">
          <mxGeometry x="454.00338216145826" y="4046.003671061198" width="120" height="60" as="geometry" />
        </mxCell>
        <mxCell id="wueXISRmm8zRBbYCRRFS-10" value="获取锁超时" style="shape=note;whiteSpace=wrap;html=1;backgroundOutline=1;darkOpacity=0.05;direction=east;" parent="1" vertex="1">
          <mxGeometry x="325" y="3044" width="161.5" height="34.5" as="geometry" />
        </mxCell>
        <mxCell id="wueXISRmm8zRBbYCRRFS-13" style="edgeStyle=orthogonalEdgeStyle;rounded=0;orthogonalLoop=1;jettySize=auto;html=1;exitX=0.5;exitY=1;exitDx=0;exitDy=0;entryX=0.5;entryY=0;entryDx=0;entryDy=0;" parent="1" source="wueXISRmm8zRBbYCRRFS-11" target="A0Nvpe352bVaeRtg3HX9-98" edge="1">
          <mxGeometry relative="1" as="geometry" />
        </mxCell>
        <mxCell id="wueXISRmm8zRBbYCRRFS-11" value="阻塞" style="rounded=0;whiteSpace=wrap;html=1;" parent="1" vertex="1">
          <mxGeometry x="872" y="3006" width="120" height="60" as="geometry" />
        </mxCell>
        <mxCell id="wueXISRmm8zRBbYCRRFS-18" value="获取锁超时" style="shape=note;whiteSpace=wrap;html=1;backgroundOutline=1;darkOpacity=0.05;direction=east;" parent="1" vertex="1">
          <mxGeometry x="1056" y="3073" width="161.5" height="34.5" as="geometry" />
        </mxCell>
        <mxCell id="npDq1CFz9nKR21-KWBLw-1" value="&lt;font style=&quot;font-size: 22px;&quot;&gt;文件删除V2&lt;br&gt;&lt;/font&gt;" style="text;html=1;align=center;verticalAlign=middle;resizable=0;points=[];autosize=1;strokeColor=none;fillColor=none;" parent="1" vertex="1">
          <mxGeometry x="-5.5" y="4366" width="133" height="38" as="geometry" />
        </mxCell>
        <mxCell id="npDq1CFz9nKR21-KWBLw-2" style="edgeStyle=orthogonalEdgeStyle;rounded=0;orthogonalLoop=1;jettySize=auto;html=1;exitX=0.5;exitY=1;exitDx=0;exitDy=0;" parent="1" source="npDq1CFz9nKR21-KWBLw-3" target="npDq1CFz9nKR21-KWBLw-32" edge="1">
          <mxGeometry relative="1" as="geometry">
            <mxPoint x="160.5" y="4579" as="targetPoint" />
          </mxGeometry>
        </mxCell>
        <mxCell id="npDq1CFz9nKR21-KWBLw-3" value="用户删除文件" style="whiteSpace=wrap;html=1;" parent="1" vertex="1">
          <mxGeometry x="100.5" y="4442" width="120" height="60" as="geometry" />
        </mxCell>
        <mxCell id="npDq1CFz9nKR21-KWBLw-7" style="edgeStyle=orthogonalEdgeStyle;rounded=0;orthogonalLoop=1;jettySize=auto;html=1;exitX=1;exitY=0.5;exitDx=0;exitDy=0;entryX=1;entryY=0.5;entryDx=0;entryDy=0;" parent="1" source="FhmNG3rI-pET6d2WoUbP-1" target="npDq1CFz9nKR21-KWBLw-25" edge="1">
          <mxGeometry relative="1" as="geometry">
            <mxPoint x="464.48275862068976" y="5778.0036710611985" as="targetPoint" />
            <Array as="points">
              <mxPoint x="617" y="4727" />
              <mxPoint x="617" y="5087" />
            </Array>
          </mxGeometry>
        </mxCell>
        <mxCell id="npDq1CFz9nKR21-KWBLw-8" value="否" style="edgeLabel;html=1;align=center;verticalAlign=middle;resizable=0;points=[];" parent="npDq1CFz9nKR21-KWBLw-7" vertex="1" connectable="0">
          <mxGeometry x="-0.6376" relative="1" as="geometry">
            <mxPoint x="-307" y="-70" as="offset" />
          </mxGeometry>
        </mxCell>
        <mxCell id="FhmNG3rI-pET6d2WoUbP-2" style="edgeStyle=orthogonalEdgeStyle;rounded=0;orthogonalLoop=1;jettySize=auto;html=1;exitX=1;exitY=0.5;exitDx=0;exitDy=0;entryX=0;entryY=0.5;entryDx=0;entryDy=0;" edge="1" parent="1" source="npDq1CFz9nKR21-KWBLw-9" target="FhmNG3rI-pET6d2WoUbP-1">
          <mxGeometry relative="1" as="geometry" />
        </mxCell>
        <mxCell id="npDq1CFz9nKR21-KWBLw-9" value="是否释放空间" style="rhombus;whiteSpace=wrap;html=1;" parent="1" vertex="1">
          <mxGeometry x="120.5" y="4687" width="80" height="80" as="geometry" />
        </mxCell>
        <mxCell id="npDq1CFz9nKR21-KWBLw-10" value="是" style="edgeStyle=orthogonalEdgeStyle;rounded=0;orthogonalLoop=1;jettySize=auto;html=1;exitX=0.5;exitY=1;exitDx=0;exitDy=0;entryX=0.5;entryY=0;entryDx=0;entryDy=0;" parent="1" source="npDq1CFz9nKR21-KWBLw-9" target="npDq1CFz9nKR21-KWBLw-36" edge="1">
          <mxGeometry relative="1" as="geometry">
            <mxPoint x="160.5" y="4962" as="sourcePoint" />
            <mxPoint x="163" y="4809" as="targetPoint" />
          </mxGeometry>
        </mxCell>
        <mxCell id="npDq1CFz9nKR21-KWBLw-16" value="是" style="edgeStyle=orthogonalEdgeStyle;rounded=0;orthogonalLoop=1;jettySize=auto;html=1;exitX=0.5;exitY=1;exitDx=0;exitDy=0;" parent="1" target="npDq1CFz9nKR21-KWBLw-25" edge="1">
          <mxGeometry relative="1" as="geometry">
            <mxPoint x="163" y="5059" as="targetPoint" />
            <mxPoint x="163" y="4999" as="sourcePoint" />
          </mxGeometry>
        </mxCell>
        <mxCell id="npDq1CFz9nKR21-KWBLw-24" style="edgeStyle=orthogonalEdgeStyle;rounded=0;orthogonalLoop=1;jettySize=auto;html=1;exitX=0.5;exitY=1;exitDx=0;exitDy=0;entryX=0.5;entryY=0;entryDx=0;entryDy=0;" parent="1" source="npDq1CFz9nKR21-KWBLw-25" target="npDq1CFz9nKR21-KWBLw-28" edge="1">
          <mxGeometry relative="1" as="geometry">
            <mxPoint x="163" y="5179" as="targetPoint" />
          </mxGeometry>
        </mxCell>
        <mxCell id="npDq1CFz9nKR21-KWBLw-25" value="计算存储空间" style="whiteSpace=wrap;html=1;" parent="1" vertex="1">
          <mxGeometry x="103" y="5057" width="120" height="60" as="geometry" />
        </mxCell>
        <mxCell id="npDq1CFz9nKR21-KWBLw-28" value="结束" style="ellipse;whiteSpace=wrap;html=1;" parent="1" vertex="1">
          <mxGeometry x="123" y="5160" width="80" height="80" as="geometry" />
        </mxCell>
        <mxCell id="npDq1CFz9nKR21-KWBLw-31" value="" style="edgeStyle=orthogonalEdgeStyle;rounded=0;orthogonalLoop=1;jettySize=auto;html=1;" parent="1" source="npDq1CFz9nKR21-KWBLw-32" target="npDq1CFz9nKR21-KWBLw-9" edge="1">
          <mxGeometry relative="1" as="geometry" />
        </mxCell>
        <mxCell id="npDq1CFz9nKR21-KWBLw-32" value="删除file表" style="rounded=0;whiteSpace=wrap;html=1;" parent="1" vertex="1">
          <mxGeometry x="100.5" y="4563" width="120" height="60" as="geometry" />
        </mxCell>
        <mxCell id="npDq1CFz9nKR21-KWBLw-36" value="定时任务清理minio对象" style="whiteSpace=wrap;html=1;" parent="1" vertex="1">
          <mxGeometry x="100.5" y="4931" width="120" height="60" as="geometry" />
        </mxCell>
        <mxCell id="FhmNG3rI-pET6d2WoUbP-1" value="更新storage_object表的release字段" style="whiteSpace=wrap;html=1;" vertex="1" parent="1">
          <mxGeometry x="386" y="4697" width="120" height="60" as="geometry" />
        </mxCell>
      </root>
    </mxGraphModel>
  </diagram>
</mxfile>
